# xmcd
#
# Track frame offsets:
#	150
#	13739
#	26883
#	44207
#	52985
#	63276
#	76959
#	89453
#	100057
#	112338
#	127709
#	146613
#	160467
#
# Disc length: 2382 seconds
#
# Revision: 1
# Processed by: cddbd v1.5.2PL0 Copyright (c) Steve Scherf et al.
# Submitted via: audiograbber 1.83.01
#
DISCID=b2094c0d
DTITLE=Tangle Ridge - Plowing Old Ground
DYEAR=2002
DGENRE=Bluegrass
TTITLE0=More Pretty Girls
TTITLE1=Little Darlin'
TTITLE2=Wayfaring Stranger
TTITLE3=I Ain't Broke
TTITLE4=The Mill
TTITLE5=Missionary Ridge
TTITLE6=Colleen Malone
TTITLE7=St. Anne's Reel
TTITLE8=Four Rode By
TTITLE9=Don't Get Too Close
TTITLE10=John Wilkes Booth
TTITLE11=Annabelle
TTITLE12=Down to the River
EXTD=
EXTT0=
EXTT1=
EXTT2=
EXTT3=
EXTT4=
EXTT5=
EXTT6=
EXTT7=
EXTT8=
EXTT9=
EXTT10=
EXTT11=
EXTT12=
PLAYORDER=
